<?xml version="1.0" encoding="UTF-8"?>
<svg xmlns="http://www.w3.org/2000/svg" onmouseup="{ if(window.parent.document.onmouseup) window.parent.document.onmouseup(arguments[0]);}" xml:space="preserve" style="enable-background:new 0 0 1920 1080;" viewBox="0 0 1920 1080" y="0px" x="0px" id="Layer_1" version="1.1" xmlns:xlink="http://www.w3.org/1999/xlink">
<style type="text/css">
	.st0{fill:#000066;}
	.st1{fill:#009933;}
</style>
<g id="Syn_Logo_White__x28_centre_x29_">
	<g>
		<path class="st0" d="M761.19,573.2"/>
		<path class="st0" d="M1123.93,531.97h-14.6v24.06c0,6.85,3.63,8.13,8.32,8.13c1.63,0,3.4-0.23,5.18-0.47l1.1,10.78    c-3.82,0.68-8.93,1.25-12.25,1.25c-10.07,0-19-3.5-19-15.78v-27.97h-8.48v-10.63h8.48v-11.72l16.64-4.69v16.41h14.6V531.97z"/>
		<path class="st0" d="M1079.15,574.62h-16.64V540.4c0-5.03-2.13-7.81-7.85-7.81c-4.3,0-7.09,2.06-10.2,4.53v37.5h-16.65v-53.28    h16.17v4.69c5.42-3.63,11.64-5.94,18.37-5.94c10.62,0,16.8,6.57,16.8,16.56V574.62z"/>
		<path class="st1" d="M994.23,476c-8.42,14.2-4.76,27.05-13,35.25c-6.61,6.59-12.75,6.38-19.96,6.38c-2.5,0-7.39,0.21-9.42,1.69    c-1.18-3.75-1.7-7.88-1.7-11.81c0-6.76,1.52-12.77,6.41-17.63C965.91,480.57,982.84,477.61,994.23,476z"/>
		<path class="st0" d="M904.25,574.62h-16.64V540.4c0-5.03-2.13-7.81-7.85-7.81c-4.3,0-7.09,2.06-10.2,4.53v37.5h-16.64v-53.28    h16.17v4.69c5.43-3.63,11.64-5.94,18.37-5.94c10.61,0,16.8,6.57,16.8,16.56V574.62z"/>
		<path class="st0" d="M849.48,521.34l-26.69,64.53c-4.1,9.92-12.34,17.19-23.55,17.19c-5.61,0-8.58-0.73-12.25-1.56l2.36-10.63    c2.95,0.66,5.18,0.94,7.22,0.94c6.69,0,10.25-5.67,13.5-13.44l1.57-3.75l-20.72-53.28h17.9l9.73,26.41    c1.18,3.19,1.83,6.45,2.36,8.75c0.61-2.32,1.8-6.15,2.98-9.22l10.05-25.94H849.48z"/>
		<path class="st0" d="M790.69,557.59c0,11.6-10.76,17.97-23.55,17.97c-8.32,0-15.05-1.39-22.14-4.22l4.55-10.78    c4.22,1.7,10.29,3.59,15.23,3.59c3.86,0,9.26-0.47,9.26-5.16c0-2.19-1.38-3.32-3.92-4.06c-3.19-0.94-8.08-1.77-11.3-2.66    c-6.79-1.86-12.4-5.41-12.4-15.31c0-10.99,9.41-17.81,22.29-17.81c8.5,0,13.9,1.12,18.68,2.5l-4.24,10.78    c-2.11-0.95-8.03-2.34-12.25-2.34c-4.57,0-7.69,1.74-7.69,4.53c0,1.38,0.86,3.13,3.3,3.91c2.61,0.83,6.74,1.59,10.2,2.34    C783.81,542.42,790.69,546.47,790.69,557.59z"/>
		<path class="st0" d="M1175,574.62h-15.7v-4.22c-4.08,3.59-9.36,5.31-15.23,5.31c-9.96,0-16.8-4.8-16.8-14.85    c0-17.66,17.72-20.4,31.56-20.47V539c0-4.39-1.67-7.5-9.58-7.5c-5.34,0-11.41,2.63-15.39,5l-4.08-9.84    c7.07-3.82,15.85-6.56,24.18-6.56c12.78,0,21.04,6.08,21.04,16.72V574.62z M1158.83,560.4v-9.85c-7.71-0.12-14.92,0.64-14.92,7.97    c0,4.53,3.84,5.94,6.75,5.94C1154.12,564.47,1156.79,562.75,1158.83,560.4z"/>
		<path class="st0" d="M1020.51,546.03c0,1.76-0.06,3.59-0.16,5.47h-35.48c0.15,7.75,4.04,12.34,15.38,12.34    c5.03,0,11.07-2.27,13.66-4.06l4.4,9.84c-7.33,3.96-15.23,6.09-24.02,6.09c-16.63,0-27-10.66-27-27.66    c0-17.28,13.58-27.97,28.25-27.97C1013.83,520.09,1020.51,530.72,1020.51,546.03z M1003.4,540.87c0.28-5.87-2.68-9.53-8.48-9.53    c-5.61,0-8.95,4.1-9.89,9.53H1003.4z"/>
		<path class="st0" d="M967.33,581.19c0,15.54-15.57,22.74-30.93,22.81c-13.51,0.07-26.53-3.81-26.53-16.72    c0-6.04,5.38-10.08,8.64-12.19c-1.81-1.03-3.45-1.84-4.87-3.44c-1.49-1.69-2.67-4.15-2.67-8.28c0-5.21,4.62-10.03,10.21-13.13    c-3.1-1.62-7.22-4.24-7.22-12.97c0-11.36,10.82-17.34,24.96-17.34c12.02,0,23.55,2.86,23.55,16.88    c0,13.39-12.64,18.28-25.43,18.28c-2.38,0-4.51-0.38-6.59-0.78c-1.36,0.72-4.08,2.52-4.08,4.53c0,4.09,5.61,4.69,8.16,4.69h13.19    C959.93,563.53,967.33,569.44,967.33,581.19z M946.29,537.59c0-4.46-2.48-8.13-8.01-8.13c-5.05,0-8.16,4.25-8.16,8.13    c0,4.47,2.8,8.13,7.85,8.13C943.52,545.72,946.29,542.04,946.29,537.59z M950.69,583.37c0-4.35-3.49-5.94-7.07-5.94h-14.6    c-2.22,1.26-5.65,4.04-5.65,7.66c0,4.68,6.33,7.81,13.82,7.81C944.93,592.91,950.69,589.36,950.69,583.37z"/>
	</g>
</g>
</svg>